<svg width="32" height="32" viewBox="0 0 32 32" fill="none" xmlns="http://www.w3.org/2000/svg">
<rect width="32" height="32" fill="#F5F5F5"/>
<g id="&#208;&#158;&#209;&#130;&#208;&#183;&#209;&#139;&#208;&#178;&#209;&#139;" clip-path="url(#clip0_0_1)">
<rect width="1440" height="2293" transform="translate(-784 -1593)" fill="white"/>
<g id="6 &#208;&#177;&#208;&#187;&#208;&#190;&#208;&#186; &#208;&#158;&#209;&#130;&#208;&#183;&#209;&#139;&#208;&#178;&#209;&#139;">
<g id="&#208;&#161;&#209;&#130;&#209;&#128;&#208;&#176;&#208;&#189;&#208;&#184;&#209;&#134;&#209;&#139;">
<path id="Next page (Traced)" fill-rule="evenodd" clip-rule="evenodd" d="M11.7169 0.56193C6.87509 2.08461 3.34402 5.11879 1.26027 9.54689C0.187519 11.8255 -0.00179026 12.801 1.26849e-05 16.0292C0.00181563 19.2507 0.195632 20.245 1.27289 22.5607C7.13787 35.1696 24.7905 35.1396 30.737 22.5116C31.8093 20.2343 32 19.2556 32 16.0292C32 12.8028 31.8093 11.8242 30.737 9.54689C29.3722 6.64817 27.0946 4.02484 24.5191 2.38414C20.9935 0.138118 15.5346 -0.638867 11.7169 0.56193ZM18.3571 10.9913C20.7785 13.384 22.7599 15.651 22.7599 16.0292C22.7599 17.1554 14.0026 25.5323 13.0213 25.3446C11.1494 24.9869 11.8156 23.551 15.6067 19.7711L19.3596 16.0292L15.6509 12.3316C12.2231 8.91386 11.4636 7.71217 12.2429 6.93921C13.0412 6.14747 14.2974 6.97989 18.3571 10.9913Z" fill="#FB8E26"/>
</g>
</g>
</g>
<g id="&#208;&#158;&#209;&#130;&#208;&#183;&#209;&#139;&#208;&#178;&#209;&#139;_2" clip-path="url(#clip1_0_1)">
<rect width="1440" height="2293" transform="translate(-784 -1593)" fill="white"/>
<g id="6 &#208;&#177;&#208;&#187;&#208;&#190;&#208;&#186; &#208;&#158;&#209;&#130;&#208;&#183;&#209;&#139;&#208;&#178;&#209;&#139;_2">
<g id="&#208;&#161;&#209;&#130;&#209;&#128;&#208;&#176;&#208;&#189;&#208;&#184;&#209;&#134;&#209;&#139;_2">
<path id="Next page (Traced)_2" fill-rule="evenodd" clip-rule="evenodd" d="M11.7169 0.56193C6.87509 2.08461 3.34402 5.11879 1.26027 9.54689C0.187519 11.8255 -0.00179026 12.801 1.26849e-05 16.0292C0.00181563 19.2507 0.195632 20.245 1.27289 22.5607C7.13787 35.1696 24.7905 35.1396 30.737 22.5116C31.8093 20.2343 32 19.2556 32 16.0292C32 12.8028 31.8093 11.8242 30.737 9.54689C29.3722 6.64817 27.0946 4.02484 24.5191 2.38414C20.9935 0.138118 15.5346 -0.638867 11.7169 0.56193ZM18.3571 10.9913C20.7785 13.384 22.7599 15.651 22.7599 16.0292C22.7599 17.1554 14.0026 25.5323 13.0213 25.3446C11.1494 24.9869 11.8156 23.551 15.6067 19.7711L19.3596 16.0292L15.6509 12.3316C12.2231 8.91386 11.4636 7.71217 12.2429 6.93921C13.0412 6.14747 14.2974 6.97989 18.3571 10.9913Z" fill="#FB8E26"/>
</g>
</g>
</g>
<defs>
<clipPath id="clip0_0_1">
<rect width="1440" height="2293" fill="white" transform="translate(-784 -1593)"/>
</clipPath>
<clipPath id="clip1_0_1">
<rect width="1440" height="2293" fill="white" transform="translate(-784 -1593)"/>
</clipPath>
</defs>
</svg>
